<?xml version="1.0" encoding="UTF-8"?>
<svg id="Livello_2" data-name="Livello 2" xmlns="http://www.w3.org/2000/svg" viewBox="0 0 1106 225.67">
  <defs>
    <style>
      .cls-1 {
        fill: #fff;
      }

      .cls-2 {
        fill: #59cccf;
      }
    </style>
  </defs>
  <g id="Livello_1-2" data-name="Livello 1">
    <g>
      <path class="cls-2" d="M102.14,103.28h0c0,56.2,45.56,101.76,101.76,101.76h0c0-56.2-45.56-101.76-101.76-101.76Z"/>
      <path class="cls-1" d="M102.53,205.85C45.99,205.85,0,159.86,0,103.32S45.99,.8,102.53,.8s102.53,45.99,102.53,102.53h-46.02c0-31.16-25.35-56.51-56.51-56.51s-56.51,25.35-56.51,56.51,25.35,56.51,56.51,56.51v46.02Z"/>
      <path class="cls-1" d="M375.78,40.88v16.37c-11.64-12.71-26.32-19.07-44.03-19.07-18.98,0-34.81,6.9-47.52,20.68-12.71,13.78-19.07,30.89-19.07,51.28s6.36,37.5,19.07,51.28c12.71,13.78,28.54,20.68,47.52,20.68,17.72,0,32.39-6.36,44.03-19.07v62.63h36.24V40.88h-36.24Zm-10.47,97.05c-6.99,7.44-15.67,11.15-26.05,11.15s-19.05-3.71-26.04-11.15c-6.99-7.42-10.47-16.69-10.47-27.79s3.48-20.08,10.47-27.52c6.99-7.42,15.65-11.14,26.04-11.14s19.07,3.66,26.05,11c6.99,7.35,10.47,16.56,10.47,27.66s-3.48,20.36-10.47,27.79Z"/>
      <path class="cls-1" d="M542.78,40.88v16.37c-11.64-12.71-26.32-19.07-44.03-19.07-18.98,0-34.82,6.9-47.52,20.68-12.71,13.78-19.07,30.89-19.07,51.28s6.36,37.5,19.07,51.28c12.69,13.78,28.54,20.68,47.52,20.68,17.72,0,32.39-6.36,44.03-19.07v16.39h36.24V40.88h-36.24Zm-10.47,97.05c-6.99,7.44-15.67,11.15-26.05,11.15s-19.07-3.71-26.04-11.15c-6.99-7.42-10.47-16.69-10.47-27.79s3.48-20.08,10.47-27.52c6.97-7.42,15.65-11.14,26.04-11.14s19.07,3.66,26.05,11c6.99,7.35,10.47,16.56,10.47,27.66s-3.48,20.36-10.47,27.79Z"/>
      <path class="cls-1" d="M734.08,58.86c-12.71-13.78-28.56-20.68-47.52-20.68-17.72,0-32.41,6.36-44.03,19.07v-16.37h-36.26V225.67h36.26v-62.63c11.63,12.71,26.32,19.07,44.03,19.07,18.96,0,34.81-6.9,47.52-20.68,12.71-13.78,19.07-30.89,19.07-51.28s-6.36-37.5-19.07-51.28Zm-28.99,79.07c-6.99,7.44-15.67,11.15-26.05,11.15s-19.07-3.71-26.04-11.15c-6.99-7.42-10.47-16.69-10.47-27.79s3.48-20.08,10.47-27.52c6.97-7.42,15.65-11.14,26.04-11.14s19.07,3.66,26.05,11c6.97,7.35,10.47,16.56,10.47,27.66s-3.5,20.36-10.47,27.79Z"/>
      <path class="cls-1" d="M843.72,72.82v-31.94h-35.98V0l-36.24,.07V125.71c0,18.09,4.57,31.55,13.69,40.41,9.12,8.88,23.18,13.31,42.16,13.31h16.37v-31.95h-16.37c-13.08,0-19.61-6.53-19.61-19.61v-55.05h35.98Z"/>
      <path class="cls-1" d="M956.49,40.88V120.88c0,8.42-2.68,15.23-8.05,20.42-5.38,5.2-12.27,7.79-20.68,7.79s-15.3-2.59-20.68-7.79c-5.36-5.18-8.05-11.99-8.05-20.42V40.88h-36.24V120.88c0,18.09,6.08,32.81,18.26,44.17,12.17,11.36,27.73,17.05,46.71,17.05s34.54-5.69,46.71-17.05c12.19-11.36,18.26-26.09,18.26-44.17V40.88h-36.24Z"/>
      <path class="cls-1" d="M1077.27,41.46c-9.31,3.5-17,9.45-23.09,17.86v-17.98h-36.24V179.88h36.24V102.28c0-12.17,5.01-20.99,15.04-26.46,10.01-5.46,22.29-5.67,36.79-.67V40.79c-9.84-3.05-19.43-2.82-28.73,.67Z"/>
    </g>
  </g>
</svg>